<?xml version="1.0" encoding="UTF-8" standalone="no"?>
<!DOCTYPE svg PUBLIC "-//W3C//DTD SVG 1.1//EN" "http://www.w3.org/Graphics/SVG/1.1/DTD/svg11.dtd">
<svg xmlns="http://www.w3.org/2000/svg" xmlns:xlink="http://www.w3.org/1999/xlink" version="1.1" width="841.89pt" height="595.276pt" viewBox="0 0 841.89 595.276">
<g enable-background="new">
<clipPath id="cp0">
<path transform="matrix(1,0,0,-1,0,595.276)" d="M 0 595.276 L 841.89 595.276 L 841.89 0 L 0 0 Z "/>
</clipPath>
<g clip-path="url(#cp0)">
<path transform="matrix(1,0,0,-1,412.7974,275.7226)" d="M 0 0 C -3.338 17.669 -15.71 29.039 -32.775 32.533 C -13.168 31.603 -.617 19.898 0 0 M 104.086 36.702 C 105.343 36.725 106.634 36.65 107.879 36.65 C 112.936 36.742 117.064 36.685 121.837 34.785 C 126.784 32.718 129.742 28.901 132.255 24.31 C 129.418 28.081 125.804 31.453 121.065 32.51 C 116.597 33.405 112.734 32.775 108.3 32.013 C 89.31 27.751 76.626 30.177 62.714 29.449 C 44.087 28.474 30.216 16.411 29.248 -2.778 C 28.543 -16.677 31.173 -38.36 38.713 -51.023 L 4.284 -51.023 C 4.826 -44.838 6.301 -38.596 6.325 -31.067 C 5.898 -17.433 2.485 -5.151 2.514 7.553 C 1.885 -5.047 4.641 -17.693 4.595 -31.067 C 4.324 -39.127 2.565 -44.711 1.695 -51.023 L -4.716 -51.023 C .519 -40.675 1.562 -27.498 .663 -15.262 C .208 -28.076 -.905 -39.815 -7.708 -51.023 L -14.621 -51.023 C -7.097 -38.279 -4.445 -17.018 -5.16 -2.853 C -6.128 16.335 -20 28.404 -38.627 29.38 C -52.539 30.107 -65.223 27.677 -84.213 31.944 C -88.641 32.7 -92.509 33.335 -96.978 32.44 C -101.717 31.378 -105.332 28.006 -108.168 24.241 C -105.654 28.832 -102.697 32.643 -97.75 34.71 C -91.852 37.054 -85.943 36.575 -79.774 36.575 C -77.087 35.397 -73.202 34.155 -69.887 34.508 C -76.667 34.97 -80.385 39.329 -84.957 43.054 C -88.335 45.802 -91.604 48.551 -95 50.918 C -97.589 52.686 -100.154 54.308 -103.227 55.064 C -105.089 55.428 -106.548 55.33 -108.404 54.984 C -112.596 54.118 -116.972 50.896 -119.468 47.344 C -121.549 44.174 -121.497 39.508 -125.844 36.125 C -129.182 33.734 -132.866 32.596 -136.798 31.545 C -138.24 31.239 -144.604 27.665 -145.556 26.175 C -144.749 27.913 -138.729 32.134 -137.179 32.787 C -133.749 34.051 -130.266 35.495 -127.678 38.168 C -124.536 41.443 -125.354 44.353 -123.607 48.667 C -125.037 47.962 -126.479 47.275 -127.943 46.628 C -134.838 43.614 -142.327 41.668 -149.39 45.3 C -155.674 48.534 -157.23 53.477 -163.907 57.189 C -156.746 54.083 -155.489 49.406 -148.778 46.634 C -142.016 43.833 -135.455 46.218 -129.327 49.475 C -123.256 52.703 -116.049 57.888 -109.569 59.707 C -102.731 61.63 -97.646 59.621 -91.708 56.11 C -84.674 51.958 -77.652 46.108 -70.584 42.453 C -67.707 40.986 -65.003 39.82 -61.746 39.624 C -47.275 39.214 -40.599 41.5 -25.119 39.618 C -21.712 39.063 -17.543 38.024 -14.788 35.703 C -13.421 34.606 -11.64 32.908 -10.965 31.251 C -11.156 32.758 -13.191 35.281 -14.223 36.344 C -21.205 43.504 -36.096 43.279 -45.206 47.696 C -50.936 51.051 -59.227 51.704 -68.036 57.138 C -73.04 60.579 -75.202 63.154 -78.465 68.115 C -80.489 71.106 -81.556 72.763 -84.974 74.235 C -90.555 76.54 -98.021 76.262 -104.017 75.563 C -108.791 74.946 -113.61 74.224 -118.396 73.814 C -123.164 73.37 -127.724 73.133 -132.399 74.357 C -135.351 75.188 -137.058 76.158 -139.237 78.295 C -144.455 83.833 -145.002 85.675 -152.936 88.366 C -144.777 86.039 -144.167 84.306 -138.395 79.213 C -136.279 77.44 -134.711 76.695 -132.001 76.106 C -127.557 75.414 -123.169 75.922 -118.753 76.574 C -111.927 77.677 -105.164 79.6 -98.05 80.287 C -102.789 84.854 -104.536 92.246 -105.279 98.626 C -106.11 106.867 -105.106 114.5 -105.983 122.481 C -106.577 126.505 -107.476 129.294 -109.719 132.719 C -112.665 136.952 -115.939 139.336 -120.414 141.802 C -111.569 137.771 -105.896 132.678 -103.666 122.925 C -101.331 112.682 -102.829 98.401 -96.96 88.666 C -95.796 86.749 -94.712 85.432 -92.78 84.266 C -89.241 82.204 -85.13 82.47 -81.261 80.974 C -85.453 89.867 -85.384 97.206 -79.745 105.567 C -78.454 107.444 -78.154 109.142 -78.143 111.388 C -78.2 118.624 -83.002 127.025 -84.986 134.498 C -85.747 137.31 -86.802 140.676 -86.081 143.586 C -85.418 145.786 -83.787 148.737 -82.876 151.203 C -83.521 149.049 -84.992 145.463 -85.286 143.436 C -85.487 140.867 -84.167 137.414 -83.354 135.005 C -81.388 130.068 -78.575 125.328 -76.441 120.304 C -75.254 117.359 -74.418 114.841 -74.015 111.677 C -73.715 108.374 -74.02 105.914 -75.617 102.969 C -77.428 99.672 -78.396 96.958 -78.166 93.164 C -77.895 90.196 -77.059 88.146 -75.669 85.548 C -71.777 78.491 -68.987 69.183 -62.87 65.62 C -54.58 61.434 -47.875 61.705 -39.901 58.72 C -33.018 56.421 -24.214 56.624 -15.566 53.956 C -8.325 51.571 -2.762 47.431 1.43 41.35 C 1.009 38.192 .899 34.554 1.43 31.857 C 1.343 40.663 7.904 48.695 6.642 55.059 C 6.048 58.062 2.773 60.256 .236 61.526 C -8.181 65.58 -18.466 68.802 -25.961 73.797 C -27.967 75.24 -30.395 78.07 -32.061 78.924 C -35.341 80.53 -38.558 81.76 -42.058 82.782 C -45.598 83.607 -48.769 84.554 -51.697 86.772 C -53.704 88.291 -55.243 90.427 -55.393 92.997 C -55.681 98.055 -51.864 102.467 -52.21 105.336 C -52.631 108.83 -57.583 113.352 -59.526 119.161 C -60.472 122.209 -60.639 124.508 -60.253 127.678 C -60.132 121.84 -57.935 118.306 -54.113 114.125 C -51.138 110.886 -47.373 107.56 -48.128 102.698 C -48.515 100.422 -49.997 95.814 -49.483 93.834 C -48.855 91.686 -42.45 91.051 -40.743 90.872 C -39.521 90.756 -38.322 90.6 -37.14 90.404 C -38.27 94.376 -38.858 98.344 -39.382 102.709 C -40.005 108.934 -40.189 114.327 -39.291 120.102 C -37.226 143.321 -45.274 139.787 -47.742 157.358 C -48.221 160.742 -47.956 161.446 -50.412 164.288 C -56.897 171.552 -70.596 173.694 -69.483 181.709 C -69.483 179.104 -68.036 177.471 -65.874 176.154 C -60.853 173.093 -52.764 171.632 -47.391 166.869 C -46.237 173.099 -43.62 178.724 -40.357 184.539 C -38.656 187.558 -36.915 190.336 -34.857 193.125 L -32.354 196.462 C -34.586 192.744 -37.14 187.593 -38.731 183.747 C -42.265 174.895 -45.217 165.159 -41.688 155.845 C -38.61 147.721 -34.113 145.33 -31.225 138.707 L -30.279 139.746 C -22.646 147.161 -14.984 149.632 -5.223 153.085 C 3.672 156.255 10.914 158.796 17.336 166.106 C 20.807 170.478 22.294 174.37 23.373 179.832 C 24.814 187.731 24.324 194.528 23.165 202.433 C 24.912 194.511 25.938 187.686 25.333 179.555 C 24.606 173.55 23.315 169.225 20.011 164.126 C 13.658 155.499 6.382 152.109 -3.073 147.79 C -11.046 144.175 -18.391 141.184 -24.22 134.388 C -26.468 131.442 -27.685 128.855 -28.532 125.599 C -30.319 118.889 -29.455 110.771 -28.284 104.355 C -27.385 99.574 -26.307 94.798 -23.862 90.542 C -22.369 88.048 -21.124 86.76 -18.616 85.311 C -14.753 83.371 -9.253 81.633 -3.811 79.9 C -2.56 79.179 -.934 78.231 1.643 75.8 C 1.458 76.441 -2.058 80.559 -3.009 81.431 C -1.078 90.086 5.708 97.044 11.519 103.373 C 16.339 108.605 20.317 112.988 22.992 119.715 C 24.29 123.358 24.664 126.176 24.393 130.034 C 24 135.052 22.646 138.776 20.38 143.246 C 26.001 135.779 29.449 128.047 28.025 118.531 C 26.595 110.297 23.424 104.742 19.209 97.703 C 16.056 92.465 9.329 82.961 11.842 76.545 C 12.782 74.38 14.102 72.769 15.705 71.083 C 16.189 70.69 16.673 70.274 17.169 69.83 C 22.928 64.402 26.746 55.677 22.334 48.337 C 20.484 45.473 19.55 44.33 19.221 40.75 C 19.902 44.226 20.998 45.185 23.194 47.702 C 24.987 49.787 25.834 51.548 26.22 53.719 C 28.158 55.151 30.066 56.658 31.968 58.31 C 37.215 63.091 40.732 67.289 42.761 74.207 C 45.033 82.909 41.048 90.802 40.911 99.487 C 40.905 103.575 41.447 106.526 42.986 110.297 C 44.612 114.443 46.29 117.676 46.578 121.182 C 46.975 128.324 42.652 137.731 41.902 145.688 C 41.499 150.955 42.023 154.621 44.133 159.489 C 43.083 154.563 43.337 151.093 44.866 146.323 C 47.374 138.742 52.407 132.511 54.597 124.369 L 55.669 125.218 C 60.466 128.815 65.367 131.76 70.331 135.063 C 80.115 141.842 82.986 150.544 83.245 162.012 C 83.372 167.717 82.576 176.575 83.995 181.859 C 84.479 183.603 85.02 184.868 86.157 186.282 C 84.311 183.233 84.259 179.538 84.537 176.079 C 84.958 171.419 85.764 166.817 86.219 162.134 C 86.739 156.232 86.704 151.74 85.21 145.948 C 83.141 138.892 80.04 134.498 74.556 129.635 C 68.278 124.132 57.128 116.313 54.043 108.495 C 52.902 105.614 52.407 103.801 52.908 100.324 C 53.727 94.706 56.984 88.504 57.866 81.043 C 58.927 81.967 59.964 83.013 61.037 84.231 C 66.352 90.594 68.578 99.273 72.608 106.035 C 74.943 109.864 77.036 112.271 80.87 114.674 C 77.774 111.666 76.367 109.015 75.018 104.961 C 73.825 101.081 73.173 97.195 72.342 93.228 C 71.299 88.262 70.267 84.479 68.013 79.877 C 65.061 74.074 61.878 70.482 56.725 66.509 C 55.975 63.64 55.006 61.035 53.813 58.564 C 51.639 57.409 49.328 56.652 47.01 55.74 C 45.586 55.174 44.34 54.625 43.067 53.765 C 41.943 52.968 41.199 52.224 40.686 50.918 C 41.343 52.102 42.144 52.714 43.32 53.344 C 44.646 53.985 45.926 54.354 47.344 54.724 C 52.539 55.983 59.538 57.132 64.277 58.72 C 72.25 61.705 78.961 61.434 87.251 65.62 C 93.363 69.183 96.153 78.491 100.044 85.548 C 101.434 88.146 102.27 90.196 102.547 93.164 C 102.772 96.958 101.803 99.672 99.999 102.969 C 98.396 105.914 98.09 108.374 98.39 111.677 C 98.793 114.841 99.624 117.359 100.817 120.304 C 102.951 125.328 105.764 130.068 107.73 135.005 C 108.542 137.414 109.863 140.867 109.662 143.436 C 109.368 145.463 107.897 149.049 107.257 151.203 C 108.168 148.737 109.793 145.786 110.457 143.586 C 111.961 138.101 105.637 124.669 103.93 119.161 C 103.141 116.516 102.576 114.171 102.518 111.388 C 102.53 109.142 102.835 107.444 104.121 105.567 C 109.759 97.206 109.829 89.867 105.637 80.974 C 111.639 83.301 117.006 81.477 121.341 88.666 C 127.205 98.401 125.706 112.682 128.046 122.925 C 130.272 132.678 135.945 137.771 144.79 141.802 C 140.315 139.336 137.041 136.952 134.094 132.719 C 131.852 129.294 130.953 126.505 130.359 122.481 C 129.482 114.5 130.486 106.867 129.656 98.626 C 128.912 92.246 127.165 84.854 122.431 80.287 C 129.545 79.6 136.302 77.677 143.128 76.574 C 147.55 75.922 151.932 75.414 156.377 76.106 C 159.087 76.695 160.655 77.44 162.777 79.213 C 168.542 84.306 169.153 86.039 177.311 88.366 C 169.383 85.675 168.831 83.833 163.613 78.295 C 161.433 76.158 159.727 75.188 156.769 74.357 C 152.105 73.133 147.54 73.37 142.777 73.814 C 137.986 74.224 133.167 74.946 128.398 75.563 C 122.397 76.262 114.931 76.54 109.35 74.235 C 105.931 72.763 104.865 71.106 102.841 68.115 C 99.578 63.154 97.416 60.579 92.412 57.138 C 78.241 48.401 61.008 46.478 45.788 40.559 C 43.741 39.832 41.85 38.746 39.849 37.256 C 38.576 36.292 37.509 35.351 36.465 34.138 C 35.999 33.618 35.232 32.741 35.053 32.054 C 35.26 32.498 36.316 33.659 36.679 33.93 C 37.861 34.941 38.991 35.743 40.323 36.546 C 52.481 43.169 72.36 39.237 86.116 39.624 C 92.372 39.901 100.379 45.525 105.401 49.001 C 111.27 53.066 119.641 59.418 126.767 60.342 C 131.598 60.972 136.447 59.141 140.667 56.941 C 148.669 52.784 157.674 45.624 166.611 45.381 C 171.915 45.242 176.331 47.777 180.079 51.346 C 182.696 53.857 184.944 55.734 188.283 57.189 C 181.612 53.477 180.049 48.534 173.765 45.3 C 166.703 41.668 159.213 43.614 152.319 46.628 C 150.854 47.275 149.413 47.962 147.983 48.667 C 149.73 44.353 148.912 41.443 152.053 38.168 C 154.642 35.495 158.125 34.051 161.56 32.787 C 163.105 32.134 169.125 27.913 169.931 26.175 C 168.98 27.665 162.616 31.239 161.174 31.545 C 157.242 32.596 153.558 33.734 150.22 36.125 C 145.878 39.508 145.925 44.174 143.849 47.344 C 141.341 50.896 136.971 54.118 132.786 54.984 C 130.929 55.33 129.465 55.428 127.603 55.064 C 121.97 53.823 114.193 46.969 109.656 43.285 C 105.256 39.722 101.291 35.951 95.138 37.314 C 95.19 37.32 97.22 35.986 104.086 36.702 M 10.06 -16.44 C 6.434 -3.84 8.913 4.717 2.491 17.45 C 1.095 19.997 -.473 22.566 -2.491 24.668 C 12.17 12.022 7.627 -2.252 10.06 -16.44 M -7.374 31.147 C -10.285 42.528 -29.138 46.524 -37.261 48.903 C -28.901 48.28 -7.316 44.255 -7.374 31.147 M 5.195 31.361 C 5.789 40.392 7.685 43.042 9.242 50.682 C 10.591 58.333 7.512 62.739 -.202 66.388 C 6.636 64.563 12.879 60.117 12.176 52.293 C 11.64 46.345 6.884 41.067 5.195 31.361 " fill="#006533" fill-rule="evenodd"/>
<path transform="matrix(1,0,0,-1,243.4312,253.63559)" d="M 0 0 C -.738 4.955 .38 10.192 3.54 14.569 C 6.699 18.946 11.306 21.654 16.235 22.503 C 16.973 17.548 15.854 12.317 12.695 7.94 C 9.542 3.563 4.929 .854 0 0 " fill="#006533" fill-rule="evenodd"/>
<path transform="matrix(1,0,0,-1,285.3848,266.2123)" d="M 0 0 C -3.257 2.414 -5.615 6.057 -6.307 10.376 C -7.004 14.702 -5.909 18.899 -3.574 22.214 C -.317 19.8 2.035 16.163 2.739 11.837 C 3.431 7.518 2.335 3.32 0 0 " fill="#006533" fill-rule="evenodd"/>
<path transform="matrix(1,0,0,-1,280.4038,237.8139)" d="M 0 0 C -2.122 -1.911 -4.958 -3.026 -8.037 -2.898 C -11.11 -2.771 -13.848 -1.426 -15.803 .658 C -13.681 2.57 -10.845 3.684 -7.766 3.557 C -4.693 3.43 -1.955 2.079 0 0 " fill="#006533" fill-rule="evenodd"/>
<path transform="matrix(1,0,0,-1,261.874,209.65232)" d="M 0 0 C -1.701 -3.089 -2.243 -6.825 -1.222 -10.498 C -.208 -14.165 2.179 -17.081 5.229 -18.853 C 6.93 -15.764 7.466 -12.028 6.452 -8.355 C 5.431 -4.683 3.044 -1.767 0 0 " fill="#006533" fill-rule="evenodd"/>
<path transform="matrix(1,0,0,-1,253.4048,223.62592)" d="M 0 0 C -1.781 -4.094 -5.096 -7.524 -9.559 -9.343 C -14.015 -11.156 -18.783 -11.012 -22.911 -9.326 C -21.129 -5.232 -17.814 -1.802 -13.352 .017 C -8.896 1.831 -4.128 1.692 0 0 " fill="#006533" fill-rule="evenodd"/>
<path transform="matrix(1,0,0,-1,249.0005,216.7836)" d="M 0 0 C 1.072 3.73 .75 7.865 -1.234 11.555 C -3.211 15.239 -6.48 17.786 -10.176 18.946 C -11.248 15.222 -10.925 11.087 -8.942 7.397 C -6.965 3.708 -3.702 1.161 0 0 " fill="#006533" fill-rule="evenodd"/>
<path transform="matrix(1,0,0,-1,266.2671,250.96772)" d="M 0 0 C -2.721 -.872 -5.114 -2.76 -6.555 -5.486 C -8.002 -8.211 -8.221 -11.254 -7.414 -13.998 C -4.699 -13.125 -2.306 -11.237 -.859 -8.512 C .583 -5.792 .802 -2.743 0 0 " fill="#006533" fill-rule="evenodd"/>
<path transform="matrix(1,0,0,-1,373.6802,111.68939)" d="M 0 0 C 3.989 -.86 8.302 -.213 12.021 2.143 C 15.745 4.499 18.178 8.119 19.124 12.098 C 15.134 12.952 10.821 12.306 7.097 9.95 C 3.378 7.599 .939 3.973 0 0 " fill="#006533" fill-rule="evenodd"/>
<path transform="matrix(1,0,0,-1,368.3989,92.93399)" d="M 0 0 C 1.447 3.274 1.672 7.097 .323 10.723 C -1.026 14.35 -3.689 17.098 -6.93 18.628 C -8.382 15.349 -8.607 11.52 -7.258 7.899 C -5.909 4.273 -3.246 1.524 0 0 " fill="#006533" fill-rule="evenodd"/>
<path transform="matrix(1,0,0,-1,346.8311,97.18979)" d="M 0 0 C -1.891 3.049 -2.64 6.802 -1.81 10.579 C -.974 14.361 1.286 17.451 4.284 19.414 C 6.175 16.371 6.924 12.611 6.094 8.835 C 5.264 5.059 2.998 1.963 0 0 " fill="#006533" fill-rule="evenodd"/>
<path transform="matrix(1,0,0,-1,421.2437,137.703)" d="M 0 0 C -1.055 -3.857 -.669 -8.113 1.424 -11.889 C 3.511 -15.66 6.913 -18.247 10.741 -19.385 C 11.795 -15.533 11.404 -11.271 9.317 -7.501 C 7.23 -3.73 3.823 -1.143 0 0 " fill="#006533" fill-rule="evenodd"/>
<path transform="matrix(1,0,0,-1,414.1465,152.9589)" d="M 0 0 C -2.162 -3.367 -3.062 -7.542 -2.202 -11.768 C -1.332 -15.995 1.136 -19.483 4.445 -21.717 C 6.607 -18.357 7.506 -14.182 6.642 -9.955 C 5.777 -5.728 3.304 -2.24 0 0 " fill="#006533" fill-rule="evenodd"/>
<path transform="matrix(1,0,0,-1,446.7607,125.790409)" d="M 0 0 C 1.527 -2.737 2.041 -6.051 1.164 -9.32 C .288 -12.588 -1.816 -15.204 -4.509 -16.798 C -6.048 -14.061 -6.556 -10.746 -5.679 -7.478 C -4.797 -4.209 -2.698 -1.599 0 0 " fill="#006533" fill-rule="evenodd"/>
<path transform="matrix(1,0,0,-1,455.3857,151.98871)" d="M 0 0 C .195 -3.996 -1.102 -8.067 -3.955 -11.301 C -6.809 -14.528 -10.689 -16.318 -14.673 -16.602 C -14.869 -12.611 -13.571 -8.535 -10.712 -5.307 C -7.858 -2.073 -3.979 -.289 0 0 " fill="#006533" fill-rule="evenodd"/>
<path transform="matrix(1,0,0,-1,428.0928,106.9252)" d="M 0 0 C -4.843 1.854 -8.994 5.532 -11.329 10.619 C -13.669 15.712 -13.756 21.255 -12.015 26.152 C -7.172 24.293 -3.021 20.62 -.687 15.527 C 1.654 10.434 1.747 4.891 0 0 " fill="#006533" fill-rule="evenodd"/>
<path transform="matrix(1,0,0,-1,441.7852,99.65521)" d="M 0 0 C 5.045 -1.189 10.539 -.485 15.33 2.402 C 20.121 5.295 23.309 9.833 24.612 14.857 C 19.567 16.053 14.073 15.348 9.282 12.455 C 4.491 9.563 1.303 5.029 0 0 " fill="#006533" fill-rule="evenodd"/>
<path transform="matrix(1,0,0,-1,332.0029,165.17182)" d="M 0 0 C -4.03 -.341 -8.181 .837 -11.542 3.615 C -14.903 6.392 -16.84 10.255 -17.273 14.28 C -13.249 14.621 -9.092 13.449 -5.73 10.671 C -2.37 7.888 -.433 4.025 0 0 " fill="#006533" fill-rule="evenodd"/>
<path transform="matrix(1,0,0,-1,326.4224,143.93939)" d="M 0 0 C -3.973 -.728 -8.222 .041 -11.836 2.478 C -15.451 4.92 -17.751 8.581 -18.564 12.542 C -14.592 13.27 -10.343 12.501 -6.729 10.059 C -3.119 7.623 -.813 3.961 0 0 " fill="#006533" fill-rule="evenodd"/>
<path transform="matrix(1,0,0,-1,335.2432,148.07361)" d="M 0 0 C 3.621 1.784 6.578 4.937 8.031 9.054 C 9.484 13.171 9.149 17.485 7.449 21.151 C 3.828 19.367 .871 16.214 -.583 12.097 C -2.03 7.98 -1.701 3.667 0 0 " fill="#006533" fill-rule="evenodd"/>
<path transform="matrix(1,0,0,-1,332.1182,125.77869)" d="M 0 0 C 3.897 1.045 7.414 3.557 9.634 7.316 C 11.859 11.069 12.373 15.366 11.416 19.292 C 7.512 18.247 4.001 15.729 1.776 11.976 C -.444 8.217 -.963 3.927 0 0 " fill="#006533" fill-rule="evenodd"/>
<path transform="matrix(1,0,0,-1,324.3237,127.609317)" d="M 0 0 C -4.359 .531 -8.516 2.708 -11.473 6.41 C -14.431 10.117 -15.636 14.655 -15.197 19.033 C -10.845 18.496 -6.682 16.324 -3.73 12.617 C -.767 8.916 .438 4.372 0 0 " fill="#006533" fill-rule="evenodd"/>
<path transform="matrix(1,0,0,-1,327.7021,115.6044)" d="M 0 0 C -3.263 3.569 -5.2 8.373 -5.027 13.599 C -4.86 18.819 -2.629 23.49 .865 26.84 C 4.128 23.271 6.065 18.473 5.898 13.247 C 5.725 8.021 3.494 3.355 0 0 " fill="#006533" fill-rule="evenodd"/>
<path transform="matrix(1,0,0,-1,308.8091,202.3476)" d="M 0 0 C -.34 -2.835 -1.752 -5.543 -4.157 -7.466 C -6.561 -9.395 -9.507 -10.174 -12.349 -9.892 C -12.003 -7.056 -10.591 -4.348 -8.187 -2.425 C -5.782 -.497 -2.836 .289 0 0 " fill="#006533" fill-rule="evenodd"/>
<path transform="matrix(1,0,0,-1,292.6724,204.42029)" d="M 0 0 C -.346 -2.835 -1.759 -5.549 -4.163 -7.472 C -6.561 -9.395 -9.513 -10.18 -12.349 -9.897 C -12.003 -7.062 -10.591 -4.354 -8.192 -2.431 C -5.783 -.497 -2.836 .283 0 0 " fill="#006533" fill-rule="evenodd"/>
<path transform="matrix(1,0,0,-1,303.2515,195.0253)" d="M 0 0 C -.346 2.835 -1.758 5.543 -4.157 7.466 C -6.566 9.395 -9.513 10.174 -12.349 9.892 C -12.003 7.056 -10.591 4.348 -8.187 2.425 C -5.788 .502 -2.836 -.283 0 0 " fill="#006533" fill-rule="evenodd"/>
<path transform="matrix(1,0,0,-1,282.1216,197.0463)" d="M 0 0 C 2.076 3.424 2.877 7.628 1.903 11.843 C .923 16.053 -1.637 19.483 -5.01 21.642 C -7.085 18.218 -7.887 14.008 -6.913 9.799 C -5.938 5.583 -3.373 2.154 0 0 " fill="#006533" fill-rule="evenodd"/>
<path transform="matrix(1,0,0,-1,278.8125,203.06922)" d="M 0 0 C -2.249 1.761 -5.154 2.679 -8.215 2.339 C -11.271 1.998 -13.912 .462 -15.716 -1.75 C -13.474 -3.511 -10.562 -4.423 -7.5 -4.083 C -4.439 -3.742 -1.805 -2.211 0 0 " fill="#006533" fill-rule="evenodd"/>
<path transform="matrix(1,0,0,-1,259.1128,158.4389)" d="M 0 0 C -2.416 -4.267 -3.24 -9.453 -1.885 -14.569 C -.531 -19.69 2.738 -23.791 6.947 -26.302 C 9.363 -22.035 10.175 -16.85 8.827 -11.733 C 7.472 -6.612 4.208 -2.512 0 0 " fill="#006533" fill-rule="evenodd"/>
<path transform="matrix(1,0,0,-1,249.7036,196.58441)" d="M 0 0 C 2.029 2.448 4.976 4.14 8.383 4.498 C 11.79 4.862 15.024 3.823 17.515 1.842 C 15.491 -.601 12.54 -2.292 9.132 -2.65 C 5.725 -3.009 2.491 -1.969 0 0 " fill="#006533" fill-rule="evenodd"/>
<path transform="matrix(1,0,0,-1,243.9556,182.5238)" d="M 0 0 C 1.413 -2.599 3.805 -4.671 6.861 -5.607 C 9.917 -6.548 13.059 -6.173 15.688 -4.816 C 14.269 -2.211 11.876 -.139 8.827 .797 C 5.771 1.732 2.624 1.363 0 0 " fill="#006533" fill-rule="evenodd"/>
<path transform="matrix(1,0,0,-1,286.5493,170.8075)" d="M 0 0 C 1.234 -3.43 3.753 -6.398 7.299 -8.113 C 10.833 -9.828 14.719 -9.961 18.178 -8.8 C 16.938 -5.364 14.414 -2.402 10.879 -.687 C 7.339 1.022 3.448 1.161 0 0 " fill="#006533" fill-rule="evenodd"/>
<path transform="matrix(1,0,0,-1,282.3062,150.7821)" d="M 0 0 C 1.729 -4.267 5.056 -7.882 9.599 -9.868 C 14.148 -11.854 19.054 -11.837 23.35 -10.203 C 21.625 -5.936 18.299 -2.315 13.75 -.329 C 9.207 1.652 4.301 1.628 0 0 " fill="#006533" fill-rule="evenodd"/>
<path transform="matrix(1,0,0,-1,298.8813,110.776798)" d="M 0 0 C 3.16 -3.078 5.166 -7.339 5.287 -12.098 C 5.408 -16.855 3.621 -21.215 .623 -24.443 C -2.537 -21.371 -4.543 -17.11 -4.664 -12.352 C -4.785 -7.593 -2.998 -3.234 0 0 " fill="#006533" fill-rule="evenodd"/>
<path transform="matrix(1,0,0,-1,274.333,138.7655)" d="M 0 0 C 2.877 2.483 6.687 3.886 10.775 3.621 C 14.857 3.361 18.46 1.49 21.009 -1.334 C 18.126 -3.817 14.315 -5.22 10.228 -4.954 C 6.14 -4.694 2.537 -2.824 0 0 " fill="#006533" fill-rule="evenodd"/>
<path transform="matrix(1,0,0,-1,318.374,184.0712)" d="M 0 0 C -1.147 2.616 -1.309 5.67 -.219 8.552 C .87 11.433 3.009 13.616 5.592 14.817 C 6.739 12.201 6.901 9.146 5.811 6.265 C 4.722 3.384 2.588 1.207 0 0 " fill="#006533" fill-rule="evenodd"/>
<path transform="matrix(1,0,0,-1,309.3452,265.1786)" d="M 0 0 C 2.721 2.015 4.687 5.058 5.27 8.667 C 5.846 12.271 4.935 15.781 2.986 18.547 C .265 16.532 -1.701 13.495 -2.283 9.886 C -2.865 6.277 -1.949 2.771 0 0 " fill="#006533" fill-rule="evenodd"/>
<path transform="matrix(1,0,0,-1,320.2764,255.5932)" d="M 0 0 C -.986 1.842 -1.28 4.06 -.651 6.225 C -.029 8.39 1.407 10.1 3.223 11.133 C 4.208 9.291 4.502 7.074 3.88 4.908 C 3.246 2.743 1.816 1.028 0 0 " fill="#006533" fill-rule="evenodd"/>
<path transform="matrix(1,0,0,-1,291.7383,245.9501)" d="M 0 0 C 1.724 2.339 4.335 4.031 7.437 4.533 C 10.527 5.036 13.537 4.244 15.906 2.564 C 14.183 .226 11.577 -1.466 8.48 -1.969 C 5.379 -2.465 2.375 -1.68 0 0 " fill="#006533" fill-rule="evenodd"/>
<path transform="matrix(1,0,0,-1,304.5776,233.9794)" d="M 0 0 C 2.214 .993 4.796 1.155 7.247 .248 C 9.697 -.659 11.559 -2.46 12.597 -4.648 C 10.389 -5.647 7.806 -5.803 5.35 -4.897 C 2.9 -3.99 1.038 -2.188 0 0 " fill="#006533" fill-rule="evenodd"/>
<path transform="matrix(1,0,0,-1,296.9902,235.4638)" d="M 0 0 C -1.072 1.917 -1.424 4.233 -.807 6.508 C -.19 8.794 1.274 10.613 3.16 11.728 C 4.232 9.811 4.583 7.496 3.967 5.22 C 3.35 2.939 1.88 1.115 0 0 " fill="#006533" fill-rule="evenodd"/>
<path transform="matrix(1,0,0,-1,379.647,199.1654)" d="M 0 0 C -3.009 1.547 -6.601 1.969 -10.089 .889 C -13.577 -.191 -16.31 -2.564 -17.918 -5.543 C -14.915 -7.091 -11.317 -7.507 -7.835 -6.427 C -4.341 -5.353 -1.614 -2.98 0 0 " fill="#006533" fill-rule="evenodd"/>
<path transform="matrix(1,0,0,-1,346.6411,171.0614)" d="M 0 0 C -2.906 -.93 -5.466 -2.962 -7.005 -5.878 C -8.544 -8.794 -8.775 -12.051 -7.904 -14.985 C -4.999 -14.043 -2.445 -12.022 -.905 -9.101 C .634 -6.19 .865 -2.928 0 0 " fill="#006533" fill-rule="evenodd"/>
<path transform="matrix(1,0,0,-1,351.7026,188.30411)" d="M 0 0 C -2.571 -1.9 -4.428 -4.77 -4.981 -8.176 C -5.535 -11.583 -4.669 -14.892 -2.836 -17.508 C -.265 -15.608 1.597 -12.738 2.15 -9.332 C 2.698 -5.924 1.839 -2.616 0 0 " fill="#006533" fill-rule="evenodd"/>
<path transform="matrix(1,0,0,-1,340.126,150.8339)" d="M 0 0 C .392 -2.593 1.753 -5.041 4.007 -6.745 C 6.261 -8.454 8.988 -9.101 11.583 -8.766 C 11.196 -6.173 9.83 -3.725 7.582 -2.021 C 5.322 -.312 2.6 .335 0 0 " fill="#006533" fill-rule="evenodd"/>
<path transform="matrix(1,0,0,-1,362.4263,138.1532)" d="M 0 0 C -2.71 -1.409 -4.889 -3.834 -5.921 -6.964 C -6.947 -10.1 -6.625 -13.356 -5.281 -16.093 C -2.571 -14.69 -.392 -12.259 .64 -9.124 C 1.666 -5.994 1.349 -2.737 0 0 " fill="#006533" fill-rule="evenodd"/>
<path transform="matrix(1,0,0,-1,367.252,149.67319)" d="M 0 0 C -2.226 -1.155 -4.013 -3.153 -4.86 -5.723 C -5.708 -8.298 -5.442 -10.971 -4.341 -13.223 C -2.116 -12.068 -.323 -10.07 .524 -7.495 C 1.366 -4.926 1.107 -2.252 0 0 " fill="#006533" fill-rule="evenodd"/>
<path transform="matrix(1,0,0,-1,345.5225,165.29291)" d="M 0 0 C 2.393 .762 5.068 .618 7.483 -.601 C 9.899 -1.819 11.6 -3.898 12.407 -6.271 C 10.014 -7.027 7.339 -6.889 4.929 -5.67 C 2.514 -4.446 .813 -2.374 0 0 " fill="#006533" fill-rule="evenodd"/>
<path transform="matrix(1,0,0,-1,353.1904,130.47891)" d="M 0 0 C -1.868 -1.669 -3.119 -4.042 -3.31 -6.745 C -3.494 -9.447 -2.589 -11.976 -.963 -13.888 C .905 -12.219 2.156 -9.846 2.346 -7.143 C 2.531 -4.435 1.625 -1.912 0 0 " fill="#006533" fill-rule="evenodd"/>
<path transform="matrix(1,0,0,-1,364.3633,122.446689)" d="M 0 0 C -.813 3.493 -2.935 6.687 -6.192 8.765 C -9.443 10.85 -13.226 11.433 -16.73 10.7 C -15.924 7.207 -13.802 4.013 -10.544 1.934 C -7.287 -.15 -3.505 -.733 0 0 " fill="#006533" fill-rule="evenodd"/>
<path transform="matrix(1,0,0,-1,360.2241,102.952518)" d="M 0 0 C -1.96 1.513 -3.35 3.759 -3.725 6.404 C -4.099 9.048 -3.379 11.595 -1.92 13.593 C .046 12.08 1.436 9.828 1.81 7.189 C 2.179 4.544 1.464 1.992 0 0 " fill="#006533" fill-rule="evenodd"/>
<path transform="matrix(1,0,0,-1,382.8813,129.95349)" d="M 0 0 C 3.321 1.045 6.25 3.337 8.025 6.652 C 9.807 9.966 10.089 13.68 9.126 17.029 C 5.806 15.989 2.871 13.691 1.096 10.382 C -.68 7.068 -.968 3.355 0 0 " fill="#006533" fill-rule="evenodd"/>
<path transform="matrix(1,0,0,-1,391.979,206.86859)" d="M 0 0 C -2.364 1.224 -5.194 1.553 -7.939 .704 C -10.689 -.145 -12.839 -2.016 -14.107 -4.36 C -11.738 -5.578 -8.913 -5.907 -6.163 -5.059 C -3.419 -4.209 -1.269 -2.345 0 0 " fill="#006533" fill-rule="evenodd"/>
<path transform="matrix(1,0,0,-1,323.5625,201.7294)" d="M 0 0 C -.288 -2.374 -1.47 -4.637 -3.477 -6.248 C -5.488 -7.859 -7.95 -8.512 -10.326 -8.275 C -10.037 -5.907 -8.855 -3.638 -6.849 -2.027 C -4.831 -.416 -2.375 .231 0 0 " fill="#006533" fill-rule="evenodd"/>
<path transform="matrix(1,0,0,-1,335.4043,211.038)" d="M 0 0 C -1.43 -2.344 -3.742 -4.146 -6.601 -4.868 C -9.466 -5.589 -12.355 -5.099 -14.719 -3.719 C -13.294 -1.38 -10.983 .422 -8.117 1.144 C -5.252 1.865 -2.364 1.38 0 0 " fill="#006533" fill-rule="evenodd"/>
<path transform="matrix(1,0,0,-1,433.4834,83.40619)" d="M 0 0 C -4.267 .993 -8.158 3.592 -10.7 7.576 C -13.243 11.566 -13.952 16.191 -13.059 20.482 C -8.798 19.489 -4.9 16.896 -2.364 12.906 C .179 8.921 .894 4.296 0 0 " fill="#006533" fill-rule="evenodd"/>
<path transform="matrix(1,0,0,-1,441.7158,85.3002)" d="M 0 0 C 4.261 .993 8.152 3.586 10.694 7.576 C 13.237 11.561 13.946 16.191 13.053 20.482 C 8.792 19.489 4.895 16.89 2.358 12.906 C -.185 8.927 -.899 4.29 0 0 " fill="#006533" fill-rule="evenodd"/>
<path transform="matrix(1,0,0,-1,406.519,120.039)" d="M 0 0 C -3.09 3.106 -5.01 7.38 -5.056 12.109 C -5.091 16.838 -3.246 21.14 -.213 24.299 C 2.877 21.192 4.797 16.925 4.837 12.195 C 4.877 7.46 3.027 3.159 0 0 " fill="#006533" fill-rule="evenodd"/>
<path transform="matrix(1,0,0,-1,453.4307,109.79529)" d="M 0 0 C -4.087 1.565 -8.769 1.594 -13.099 -.283 C -17.434 -2.165 -20.604 -5.607 -22.26 -9.666 C -18.172 -11.225 -13.49 -11.254 -9.16 -9.377 C -4.831 -7.495 -1.654 -4.059 0 0 " fill="#006533" fill-rule="evenodd"/>
<path transform="matrix(1,0,0,-1,408.1562,140.98871)" d="M 0 0 C -1.614 -3.43 -4.508 -6.248 -8.336 -7.674 C -12.159 -9.101 -16.189 -8.858 -19.642 -7.322 C -18.034 -3.897 -15.14 -1.074 -11.312 .347 C -7.489 1.773 -3.459 1.53 0 0 " fill="#006533" fill-rule="evenodd"/>
<path transform="matrix(1,0,0,-1,403.8437,155.621)" d="M 0 0 C -.023 -4.383 -1.695 -8.76 -5.016 -12.12 C -8.342 -15.481 -12.695 -17.196 -17.065 -17.265 C -17.042 -12.883 -15.37 -8.505 -12.049 -5.145 C -8.723 -1.784 -4.375 -.069 0 0 " fill="#006533" fill-rule="evenodd"/>
<path transform="matrix(1,0,0,-1,404.2822,172.078)" d="M 0 0 C 1.539 -2.864 2 -6.312 1.026 -9.684 C .052 -13.062 -2.173 -15.729 -5.004 -17.334 C -6.538 -14.465 -7.005 -11.023 -6.031 -7.645 C -5.056 -4.267 -2.831 -1.605 0 0 " fill="#006533" fill-rule="evenodd"/>
<path transform="matrix(1,0,0,-1,427.874,131.18939)" d="M 0 0 C -2.358 -2.2 -5.541 -3.517 -9.012 -3.43 C -12.488 -3.349 -15.607 -1.882 -17.85 .433 C -15.492 2.627 -12.309 3.944 -8.838 3.857 C -5.362 3.776 -2.249 2.304 0 0 " fill="#006533" fill-rule="evenodd"/>
<path transform="matrix(1,0,0,-1,400.0044,64.83002)" d="M 0 0 C -.554 -3.632 -2.462 -7.062 -5.627 -9.447 C -8.786 -11.832 -12.609 -12.727 -16.247 -12.259 C -15.693 -8.627 -13.779 -5.197 -10.614 -2.812 C -7.455 -.427 -3.638 .468 0 0 " fill="#006533" fill-rule="evenodd"/>
<path transform="matrix(1,0,0,-1,401.1284,82.26849)" d="M 0 0 C -1.562 -4.464 -4.796 -8.344 -9.369 -10.608 C -13.935 -12.871 -18.979 -13.097 -23.47 -11.63 C -21.908 -7.166 -18.668 -3.286 -14.102 -1.022 C -9.53 1.241 -4.491 1.461 0 0 " fill="#006533" fill-rule="evenodd"/>
<path transform="matrix(1,0,0,-1,373.7725,85.225009)" d="M 0 0 C 1.949 2.015 3.142 4.764 3.13 7.795 C 3.119 10.827 1.896 13.564 -.069 15.562 C -2.024 13.547 -3.217 10.792 -3.206 7.767 C -3.194 4.735 -1.972 1.998 0 0 " fill="#006533" fill-rule="evenodd"/>
<path transform="matrix(1,0,0,-1,442.333,181.80802)" d="M 0 0 C .743 -3.926 .018 -8.142 -2.364 -11.733 C -4.745 -15.331 -8.343 -17.635 -12.245 -18.472 C -12.989 -14.54 -12.263 -10.33 -9.882 -6.738 C -7.501 -3.141 -3.909 -.832 0 0 " fill="#006533" fill-rule="evenodd"/>
<path transform="matrix(1,0,0,-1,493.5166,91.33441)" d="M 0 0 C -3.805 1.357 -7.108 4.14 -9.022 8.067 C -10.937 11.982 -11.109 16.307 -9.841 20.147 C -6.036 18.79 -2.738 16.007 -.824 12.086 C 1.096 8.165 1.269 3.84 0 0 " fill="#006533" fill-rule="evenodd"/>
<path transform="matrix(1,0,0,-1,499.3057,101.0238)" d="M 0 0 C 4.041 .081 8.048 1.68 11.104 4.798 C 14.159 7.911 15.682 11.953 15.692 16.001 C 11.657 15.92 7.645 14.32 4.589 11.202 C 1.533 8.09 .011 4.048 0 0 " fill="#006533" fill-rule="evenodd"/>
<path transform="matrix(1,0,0,-1,492.6006,108.8598)" d="M 0 0 C -3.782 .78 -7.271 2.985 -9.6 6.444 C -11.929 9.903 -12.661 13.968 -11.963 17.779 C -8.182 16.994 -4.693 14.788 -2.364 11.33 C -.035 7.871 .697 3.8 0 0 " fill="#006533" fill-rule="evenodd"/>
<path transform="matrix(1,0,0,-1,490.5879,126.414)" d="M 0 0 C -3.88 .803 -7.466 3.066 -9.853 6.612 C -12.245 10.169 -12.994 14.344 -12.279 18.247 C -8.399 17.445 -4.813 15.175 -2.427 11.63 C -.04 8.079 .709 3.904 0 0 " fill="#006533" fill-rule="evenodd"/>
<path transform="matrix(1,0,0,-1,473.5176,143.96231)" d="M 0 0 C -3.442 2.974 -5.771 7.247 -6.187 12.149 C -6.602 17.046 -5.021 21.648 -2.128 25.159 C 1.314 22.185 3.644 17.912 4.059 13.016 C 4.474 8.119 2.894 3.517 0 0 " fill="#006533" fill-rule="evenodd"/>
<path transform="matrix(1,0,0,-1,459.8711,118.046817)" d="M 0 0 C 3.828 .895 7.327 3.234 9.61 6.814 C 11.888 10.4 12.527 14.563 11.721 18.42 C 7.893 17.525 4.393 15.187 2.115 11.601 C -.167 8.015 -.808 3.857 0 0 " fill="#006533" fill-rule="evenodd"/>
<path transform="matrix(1,0,0,-1,607.1797,253.63559)" d="M 0 0 C .743 4.955 -.375 10.192 -3.534 14.569 C -6.694 18.946 -11.3 21.654 -16.229 22.503 C -16.968 17.548 -15.849 12.317 -12.689 7.94 C -9.53 3.563 -4.924 .854 0 0 " fill="#006533" fill-rule="evenodd"/>
<path transform="matrix(1,0,0,-1,565.2314,266.2123)" d="M 0 0 C 3.257 2.414 5.615 6.057 6.307 10.376 C 7.005 14.702 5.909 18.899 3.574 22.214 C .316 19.8 -2.041 16.163 -2.733 11.837 C -3.431 7.518 -2.335 3.32 0 0 " fill="#006533" fill-rule="evenodd"/>
<path transform="matrix(1,0,0,-1,570.2119,237.8139)" d="M 0 0 C 2.122 -1.911 4.959 -3.026 8.037 -2.898 C 11.11 -2.771 13.849 -1.426 15.803 .658 C 13.682 2.57 10.845 3.684 7.767 3.557 C 4.693 3.43 1.955 2.079 0 0 " fill="#006533" fill-rule="evenodd"/>
<path transform="matrix(1,0,0,-1,588.7422,209.65232)" d="M 0 0 C 1.7 -3.089 2.242 -6.825 1.222 -10.498 C .207 -14.165 -2.186 -17.081 -5.229 -18.853 C -6.93 -15.764 -7.472 -12.028 -6.451 -8.355 C -5.431 -4.683 -3.044 -1.767 0 0 " fill="#006533" fill-rule="evenodd"/>
<path transform="matrix(1,0,0,-1,597.2051,223.62592)" d="M 0 0 C 1.782 -4.094 5.103 -7.524 9.564 -9.343 C 14.021 -11.156 18.789 -11.012 22.917 -9.326 C 21.136 -5.232 17.82 -1.802 13.358 .017 C 8.902 1.831 4.134 1.692 0 0 " fill="#006533" fill-rule="evenodd"/>
<path transform="matrix(1,0,0,-1,601.6162,216.7836)" d="M 0 0 C -1.072 3.73 -.75 7.865 1.228 11.555 C 3.211 15.239 6.474 17.786 10.176 18.946 C 11.248 15.222 10.925 11.087 8.941 7.397 C 6.964 3.708 3.695 1.161 0 0 " fill="#006533" fill-rule="evenodd"/>
<path transform="matrix(1,0,0,-1,584.3486,250.96772)" d="M 0 0 C 2.722 -.872 5.114 -2.76 6.556 -5.486 C 7.997 -8.211 8.222 -11.254 7.414 -13.998 C 4.699 -13.125 2.307 -11.237 .859 -8.512 C -.582 -5.792 -.807 -2.743 0 0 " fill="#006533" fill-rule="evenodd"/>
<path transform="matrix(1,0,0,-1,518.6133,165.17182)" d="M 0 0 C 4.024 -.341 8.181 .837 11.542 3.615 C 14.903 6.392 16.84 10.255 17.272 14.28 C 13.248 14.621 9.092 13.449 5.73 10.671 C 2.369 7.888 .433 4.025 0 0 " fill="#006533" fill-rule="evenodd"/>
<path transform="matrix(1,0,0,-1,524.1943,143.93939)" d="M 0 0 C 3.972 -.728 8.221 .041 11.836 2.478 C 15.444 4.92 17.751 8.581 18.563 12.542 C 14.592 13.27 10.343 12.501 6.728 10.059 C 3.113 7.623 .812 3.961 0 0 " fill="#006533" fill-rule="evenodd"/>
<path transform="matrix(1,0,0,-1,515.373,148.07361)" d="M 0 0 C -3.626 1.784 -6.578 4.937 -8.031 9.054 C -9.478 13.171 -9.155 17.485 -7.448 21.151 C -3.822 19.367 -.87 16.214 .577 12.097 C 2.029 7.98 1.701 3.667 0 0 " fill="#006533" fill-rule="evenodd"/>
<path transform="matrix(1,0,0,-1,518.498,125.77869)" d="M 0 0 C -3.897 1.045 -7.414 3.557 -9.634 7.316 C -11.859 11.069 -12.372 15.366 -11.415 19.292 C -7.513 18.247 -4.001 15.729 -1.775 11.976 C .443 8.217 .963 3.927 0 0 " fill="#006533" fill-rule="evenodd"/>
<path transform="matrix(1,0,0,-1,526.293,127.609317)" d="M 0 0 C 4.358 .531 8.515 2.708 11.473 6.41 C 14.43 10.117 15.635 14.655 15.197 19.033 C 10.844 18.496 6.682 16.324 3.724 12.617 C .767 8.916 -.438 4.372 0 0 " fill="#006533" fill-rule="evenodd"/>
<path transform="matrix(1,0,0,-1,522.9082,115.6044)" d="M 0 0 C 3.269 3.569 5.2 8.373 5.033 13.599 C 4.866 18.819 2.629 23.49 -.859 26.84 C -4.128 23.271 -6.06 18.473 -5.892 13.247 C -5.725 8.021 -3.488 3.355 0 0 " fill="#006533" fill-rule="evenodd"/>
<path transform="matrix(1,0,0,-1,541.8066,202.3476)" d="M 0 0 C .341 -2.835 1.753 -5.543 4.157 -7.466 C 6.562 -9.395 9.507 -10.174 12.35 -9.892 C 12.004 -7.056 10.591 -4.348 8.187 -2.425 C 5.783 -.497 2.837 .289 0 0 " fill="#006533" fill-rule="evenodd"/>
<path transform="matrix(1,0,0,-1,557.9443,204.42029)" d="M 0 0 C .346 -2.835 1.758 -5.549 4.162 -7.472 C 6.566 -9.395 9.513 -10.18 12.349 -9.897 C 12.003 -7.062 10.591 -4.354 8.187 -2.431 C 5.782 -.497 2.836 .283 0 0 " fill="#006533" fill-rule="evenodd"/>
<path transform="matrix(1,0,0,-1,547.3643,195.0253)" d="M 0 0 C .347 2.835 1.753 5.543 4.163 7.466 C 6.567 9.395 9.513 10.174 12.35 9.892 C 12.004 7.056 10.591 4.348 8.192 2.425 C 5.783 .502 2.837 -.283 0 0 " fill="#006533" fill-rule="evenodd"/>
<path transform="matrix(1,0,0,-1,568.4941,197.0463)" d="M 0 0 C -2.081 3.424 -2.877 7.628 -1.902 11.843 C -.928 16.053 1.638 19.483 5.01 21.642 C 7.092 18.218 7.887 14.008 6.913 9.799 C 5.938 5.583 3.373 2.154 0 0 " fill="#006533" fill-rule="evenodd"/>
<path transform="matrix(1,0,0,-1,571.7979,203.06922)" d="M 0 0 C 2.254 1.761 5.16 2.679 8.222 2.339 C 11.276 1.998 13.917 .462 15.722 -1.75 C 13.474 -3.511 10.562 -4.423 7.507 -4.083 C 4.451 -3.742 1.811 -2.211 0 0 " fill="#006533" fill-rule="evenodd"/>
<path transform="matrix(1,0,0,-1,591.5039,158.4389)" d="M 0 0 C 2.415 -4.267 3.234 -9.453 1.885 -14.569 C .53 -19.69 -2.739 -23.791 -6.947 -26.302 C -9.363 -22.035 -10.176 -16.85 -8.827 -11.733 C -7.472 -6.612 -4.209 -2.512 0 0 " fill="#006533" fill-rule="evenodd"/>
<path transform="matrix(1,0,0,-1,600.9062,196.58441)" d="M 0 0 C -2.023 2.448 -4.969 4.14 -8.377 4.498 C -11.784 4.862 -15.019 3.823 -17.509 1.842 C -15.485 -.601 -12.533 -2.292 -9.126 -2.65 C -5.719 -3.009 -2.49 -1.969 0 0 " fill="#006533" fill-rule="evenodd"/>
<path transform="matrix(1,0,0,-1,606.6602,182.5238)" d="M 0 0 C -1.418 -2.599 -3.811 -4.671 -6.86 -5.607 C -9.916 -6.548 -13.058 -6.173 -15.688 -4.816 C -14.269 -2.211 -11.876 -.139 -8.82 .797 C -5.771 1.732 -2.629 1.363 0 0 " fill="#006533" fill-rule="evenodd"/>
<path transform="matrix(1,0,0,-1,564.0664,170.8075)" d="M 0 0 C -1.233 -3.43 -3.759 -6.398 -7.293 -8.113 C -10.833 -9.828 -14.725 -9.961 -18.178 -8.8 C -16.938 -5.364 -14.413 -2.402 -10.879 -.687 C -7.339 1.022 -3.453 1.161 0 0 " fill="#006533" fill-rule="evenodd"/>
<path transform="matrix(1,0,0,-1,568.3037,150.7821)" d="M 0 0 C -1.724 -4.267 -5.05 -7.882 -9.593 -9.868 C -14.142 -11.854 -19.054 -11.837 -23.343 -10.203 C -21.619 -5.936 -18.293 -2.315 -13.75 -.329 C -9.207 1.652 -4.295 1.628 0 0 " fill="#006533" fill-rule="evenodd"/>
<path transform="matrix(1,0,0,-1,551.7344,110.776798)" d="M 0 0 C -3.153 -3.078 -5.165 -7.339 -5.286 -12.098 C -5.407 -16.855 -3.62 -21.215 -.622 -24.443 C 2.537 -21.371 4.543 -17.11 4.664 -12.352 C 4.785 -7.593 2.998 -3.234 0 0 " fill="#006533" fill-rule="evenodd"/>
<path transform="matrix(1,0,0,-1,576.2832,138.7655)" d="M 0 0 C -2.877 2.483 -6.687 3.886 -10.775 3.621 C -14.863 3.361 -18.466 1.49 -21.009 -1.334 C -18.126 -3.817 -14.321 -5.22 -10.228 -4.954 C -6.14 -4.694 -2.537 -2.824 0 0 " fill="#006533" fill-rule="evenodd"/>
<path transform="matrix(1,0,0,-1,532.2422,184.0712)" d="M 0 0 C 1.147 2.616 1.309 5.67 .219 8.552 C -.87 11.433 -3.01 13.616 -5.592 14.817 C -6.739 12.201 -6.901 9.146 -5.812 6.265 C -4.728 3.384 -2.589 1.207 0 0 " fill="#006533" fill-rule="evenodd"/>
<path transform="matrix(1,0,0,-1,541.2705,265.1786)" d="M 0 0 C -2.721 2.015 -4.687 5.058 -5.27 8.667 C -5.846 12.271 -4.935 15.781 -2.986 18.547 C -.265 16.532 1.707 13.495 2.283 9.886 C 2.865 6.277 1.949 2.771 0 0 " fill="#006533" fill-rule="evenodd"/>
<path transform="matrix(1,0,0,-1,530.3398,255.5932)" d="M 0 0 C .985 1.842 1.28 4.06 .651 6.225 C .028 8.39 -1.407 10.1 -3.223 11.133 C -4.209 9.291 -4.503 7.074 -3.874 4.908 C -3.252 2.743 -1.822 1.028 0 0 " fill="#006533" fill-rule="evenodd"/>
<path transform="matrix(1,0,0,-1,558.8779,245.9501)" d="M 0 0 C -1.729 2.339 -4.336 4.031 -7.437 4.533 C -10.527 5.036 -13.537 4.244 -15.912 2.564 C -14.183 .226 -11.577 -1.466 -8.48 -1.969 C -5.379 -2.465 -2.381 -1.68 0 0 " fill="#006533" fill-rule="evenodd"/>
<path transform="matrix(1,0,0,-1,546.0391,233.9794)" d="M 0 0 C -2.214 .993 -4.797 1.155 -7.253 .248 C -9.697 -.659 -11.56 -2.46 -12.598 -4.648 C -10.39 -5.647 -7.807 -5.803 -5.351 -4.897 C -2.9 -3.99 -1.044 -2.188 0 0 " fill="#006533" fill-rule="evenodd"/>
<path transform="matrix(1,0,0,-1,553.626,235.4638)" d="M 0 0 C 1.072 1.917 1.424 4.233 .807 6.508 C .19 8.794 -1.274 10.613 -3.165 11.728 C -4.232 9.811 -4.584 7.496 -3.967 5.22 C -3.35 2.939 -1.88 1.115 0 0 " fill="#006533" fill-rule="evenodd"/>
<path transform="matrix(1,0,0,-1,503.9756,171.0614)" d="M 0 0 C 2.905 -.93 5.465 -2.962 7.005 -5.878 C 8.538 -8.794 8.774 -12.051 7.903 -14.985 C 4.998 -14.043 2.444 -12.022 .904 -9.101 C -.635 -6.19 -.865 -2.928 0 0 " fill="#006533" fill-rule="evenodd"/>
<path transform="matrix(1,0,0,-1,494.9873,182.25821)" d="M 0 0 C 3.171 -2.339 5.46 -5.873 6.134 -10.076 C 6.814 -14.274 5.76 -18.345 3.487 -21.567 C .328 -19.229 -1.966 -15.695 -2.646 -11.502 C -3.321 -7.305 -2.266 -3.222 0 0 " fill="#006533" fill-rule="evenodd"/>
<path transform="matrix(1,0,0,-1,510.4844,150.8339)" d="M 0 0 C -.387 -2.593 -1.747 -5.041 -4.001 -6.745 C -6.256 -8.454 -8.977 -9.101 -11.577 -8.766 C -11.19 -6.173 -9.824 -3.725 -7.576 -2.021 C -5.315 -.312 -2.595 .335 0 0 " fill="#006533" fill-rule="evenodd"/>
<path transform="matrix(1,0,0,-1,505.0937,165.29291)" d="M 0 0 C -2.393 .762 -5.067 .618 -7.483 -.601 C -9.899 -1.819 -11.6 -3.898 -12.407 -6.271 C -10.015 -7.027 -7.339 -6.889 -4.93 -5.67 C -2.514 -4.446 -.813 -2.374 0 0 " fill="#006533" fill-rule="evenodd"/>
<path transform="matrix(1,0,0,-1,527.0537,201.7294)" d="M 0 0 C .288 -2.374 1.464 -4.637 3.477 -6.248 C 5.488 -7.859 7.95 -8.512 10.325 -8.275 C 10.037 -5.907 8.855 -3.638 6.849 -2.027 C 4.837 -.416 2.375 .231 0 0 " fill="#006533" fill-rule="evenodd"/>
<path transform="matrix(1,0,0,-1,515.2119,211.038)" d="M 0 0 C 1.43 -2.344 3.741 -4.146 6.601 -4.868 C 9.467 -5.589 12.354 -5.099 14.719 -3.719 C 13.289 -1.38 10.982 .422 8.117 1.144 C 5.258 1.865 2.369 1.38 0 0 " fill="#006533" fill-rule="evenodd"/>
<path transform="matrix(1,0,0,-1,470.1328,178.66062)" d="M 0 0 C 3.113 .935 5.875 3.049 7.564 6.121 C 9.259 9.198 9.57 12.663 8.7 15.798 C 5.587 14.857 2.825 12.75 1.13 9.678 C -.564 6.6 -.87 3.135 0 0 " fill="#006533" fill-rule="evenodd"/>
<path transform="matrix(1,0,0,-1,481.3643,154.206)" d="M 0 0 C 2.565 -1.998 5.88 -3.032 9.362 -2.633 C 12.851 -2.241 15.849 -.479 17.9 2.044 C 15.335 4.042 12.015 5.07 8.532 4.677 C 5.05 4.279 2.052 2.523 0 0 " fill="#006533" fill-rule="evenodd"/>
<path transform="matrix(1,0,0,-1,475.8057,210.40271)" d="M 0 0 C 3.166 -.474 6.504 .237 9.3 2.258 C 12.096 4.279 13.819 7.224 14.367 10.376 C 11.208 10.856 7.87 10.146 5.074 8.125 C 2.277 6.104 .548 3.153 0 0 " fill="#006533" fill-rule="evenodd"/>
<path transform="matrix(1,0,0,-1,420.9448,322.7895)" d="M 0 0 C 143.584 0 259.985 -1.871 259.985 -4.181 C 259.985 -6.491 143.584 -8.361 0 -8.361 C -143.584 -8.361 -259.985 -6.491 -259.985 -4.181 C -259.985 -1.871 -143.584 0 0 0 " fill="#006533" fill-rule="evenodd"/>
<path transform="matrix(1,0,0,-1,411.165,378.8461)" d="M 0 0 C 0 -1.642 -.284 -3.076 -.775 -4.3 C -1.324 -5.667 -2.131 -6.766 -3.094 -7.591 L -3.093 -7.593 C -3.163 -7.652 -3.237 -7.701 -3.316 -7.738 C -6.866 -9.781 -5.58 -29.807 -4.854 -41.108 C -4.69 -43.658 -4.554 -45.77 -4.51 -47.225 L -4.507 -47.225 C -4.489 -47.785 -4.93 -48.253 -5.491 -48.27 C -5.501 -48.271 -5.511 -48.271 -5.521 -48.271 L -10.722 -48.271 C -11.282 -48.271 -11.737 -47.816 -11.737 -47.255 C -11.737 -47.216 -11.735 -47.176 -11.73 -47.138 C -11.69 -45.876 -11.575 -44.015 -11.435 -41.733 C -10.755 -30.661 -9.458 -9.583 -12.899 -7.771 L -12.9 -7.773 C -12.986 -7.729 -13.063 -7.672 -13.13 -7.607 C -14.091 -6.789 -14.899 -5.701 -15.451 -4.345 C -15.953 -3.114 -16.243 -1.665 -16.243 0 C -16.243 7.858 -14.251 12.953 -11.702 15.237 C -10.591 16.233 -9.364 16.73 -8.121 16.73 C -6.878 16.73 -5.652 16.233 -4.541 15.237 C -1.992 12.953 0 7.858 0 0 " fill="#006533"/>
<path transform="matrix(1,0,0,-1,369.9253,362.1156)" d="M 0 0 L -1.016 -15.22 C -1.016 -16.933 -.718 -18.424 -.202 -19.69 C .366 -21.086 1.197 -22.205 2.187 -23.047 C 2.253 -23.11 2.33 -23.167 2.417 -23.212 L 2.417 -23.21 C 5.985 -25.088 4.648 -46.855 3.945 -58.289 C 3.8 -60.646 3.682 -62.568 3.641 -63.869 C 3.636 -63.906 3.634 -63.946 3.634 -63.985 C 3.634 -64.547 4.088 -65.001 4.649 -65.001 L 10.823 -65.001 C 11.384 -65.001 11.838 -64.547 11.838 -63.985 C 11.838 -63.946 11.836 -63.906 11.832 -63.869 C 11.79 -62.568 11.672 -60.646 11.526 -58.289 C 10.824 -46.855 9.487 -25.088 13.055 -23.21 L 13.056 -23.212 C 13.142 -23.167 13.219 -23.11 13.287 -23.047 C 14.275 -22.205 15.106 -21.086 15.674 -19.69 C 16.19 -18.424 16.488 -16.933 16.488 -15.22 L 15.473 0 C 15.163 -1.599 11.85 -18.797 11.813 -18.784 C 11.122 -12.433 10.655 -6.382 10.218 0 L 7.841 -19.133 C 7.802 -19.315 7.769 -19.384 7.736 -19.384 C 7.703 -19.384 7.671 -19.315 7.631 -19.133 L 5.254 0 C 4.817 -6.382 4.35 -12.433 3.659 -18.784 C 3.623 -18.797 .31 -1.599 0 0 " fill="#006533"/>
<path transform="matrix(1,0,0,-1,290.5669,346.3656)" d="M 0 0 L -39.371 -46.121 L 0 -92.25 L -11.822 -92.25 L -45.282 -53.05 L -78.742 -92.25 L -85.311 -92.25 L -85.311 0 L -76.325 0 L -76.325 -75.576 L -11.813 0 Z " fill="#006533"/>
<path transform="matrix(1,0,0,-1,0,595.276)" d="M 312.544 248.914 L 321.53 248.914 L 321.53 156.655 L 312.544 156.655 Z " fill="#006533"/>
<path transform="matrix(1,0,0,-1,427.6387,390.47889)" d="M 0 0 C 0 20.48 -16.664 37.146 -37.143 37.146 C -57.625 37.146 -74.288 20.48 -74.288 0 C -74.288 -20.482 -57.625 -37.145 -37.143 -37.145 C -16.664 -37.145 0 -20.482 0 0 M -37.143 -46.133 C -62.581 -46.133 -83.274 -25.436 -83.274 0 C -83.274 25.437 -62.581 46.13 -37.143 46.13 C -11.707 46.13 8.989 25.437 8.989 0 C 8.989 -25.436 -11.707 -46.133 -37.143 -46.133 " fill="#006533"/>
<path transform="matrix(1,0,0,-1,466.5107,371.6723)" d="M 0 0 C 0 -9.002 7.324 -16.325 16.326 -16.325 L 45.767 -16.325 C 59.724 -16.325 71.078 -27.68 71.078 -41.636 C 71.078 -55.592 59.724 -66.947 45.767 -66.947 L 16.326 -66.947 C 2.37 -66.947 -8.985 -55.593 -8.985 -41.636 L .002 -41.636 C .002 -50.638 7.325 -57.96 16.327 -57.96 L 45.768 -57.96 C 54.77 -57.96 62.093 -50.638 62.093 -41.636 C 62.093 -32.634 54.77 -25.312 45.768 -25.312 L 16.327 -25.312 C 2.371 -25.312 -8.983 -13.957 -8.983 0 C -8.983 13.956 2.37 25.311 16.327 25.311 L 45.768 25.311 C 59.725 25.311 71.079 13.957 71.079 0 L 62.093 0 C 62.093 9.002 54.77 16.324 45.768 16.324 L 16.327 16.324 C 7.324 16.324 .002 9.002 0 0 " fill="#006533"/>
<path transform="matrix(1,0,0,-1,644.9873,346.3656)" d="M 0 0 L -39.371 -46.121 L 0 -92.25 L -11.822 -92.25 L -45.282 -53.05 L -78.741 -92.25 L -85.312 -92.25 L -85.312 0 L -76.324 0 L -76.324 -75.576 L -11.813 0 Z " fill="#006533"/>
<path transform="matrix(1,0,0,-1,208.0498,455.2319)" d="M 0 0 C 0 -3.079 2.506 -5.585 5.585 -5.585 L 15.657 -5.585 C 20.431 -5.585 24.315 -9.469 24.315 -14.243 C 24.315 -19.018 20.431 -22.902 15.657 -22.902 L 5.585 -22.902 C .811 -22.902 -3.074 -19.018 -3.074 -14.243 L 0 -14.243 C 0 -17.323 2.506 -19.828 5.585 -19.828 L 15.657 -19.828 C 18.736 -19.828 21.242 -17.323 21.242 -14.243 C 21.242 -11.164 18.736 -8.659 15.657 -8.659 L 5.585 -8.659 C .812 -8.659 -3.073 -4.774 -3.073 0 C -3.073 4.774 .811 8.658 5.585 8.658 L 15.657 8.658 C 20.432 8.658 24.316 4.774 24.316 0 L 21.242 0 C 21.242 3.079 18.736 5.584 15.657 5.584 L 5.585 5.584 C 2.506 5.584 0 3.079 0 0 " fill="#006533"/>
</g>
<text fill="#006533" xml:space="preserve" transform="matrix(1 0 -0 1 0 595.276)" font-size="45.091" font-family="AblationExtraBold" font-weight="bold"><tspan y="-117.1377" x="236.2202"> </tspan></text>
<clipPath id="cp1">
<path transform="matrix(1,0,0,-1,0,595.276)" d="M 0 595.276 L 841.89 595.276 L 841.89 0 L 0 0 Z "/>
</clipPath>
<g clip-path="url(#cp1)">
<path transform="matrix(1,0,0,-1,267.9448,449.6479)" d="M 0 0 L -12.157 0 L -12.157 3.074 L 15.232 3.074 L 15.232 0 L 3.074 0 L 3.074 -28.486 L 0 -28.486 Z " fill="#006533"/>
</g>
<text fill="#006533" xml:space="preserve" transform="matrix(1 0 -0 1 0 595.276)" font-size="45.091" font-family="AblationExtraBold" font-weight="bold"><tspan y="-117.1377" x="287.0317"> </tspan></text>
<clipPath id="cp2">
<path transform="matrix(1,0,0,-1,0,595.276)" d="M 0 595.276 L 841.89 595.276 L 841.89 0 L 0 0 Z "/>
</clipPath>
<g clip-path="url(#cp2)">
<path transform="matrix(1,0,0,-1,328.1514,468.5893)" d="M 0 0 L -7.069 16.562 L -14.138 0 Z M -6.055 22.015 L 7.414 -9.544 L 4.073 -9.544 L 1.312 -3.074 L -15.451 -3.074 L -18.212 -9.544 L -21.552 -9.544 L -8.083 22.015 Z " fill="#006533"/>
<path transform="matrix(1,0,0,-1,383.2593,462.35389)" d="M 0 0 C 0 7.007 -5.7 12.706 -12.706 12.706 L -21.241 12.706 L -21.241 -12.706 L -12.706 -12.706 C -5.7 -12.706 0 -7.006 0 0 M -12.707 -15.78 L -24.315 -15.78 L -24.315 15.78 L -12.707 15.78 C -4.005 15.78 3.073 8.701 3.073 0 C 3.073 -8.701 -4.005 -15.78 -12.707 -15.78 " fill="#006533"/>
<path transform="matrix(1,0,0,-1,412.8315,455.2319)" d="M 0 0 C 0 -3.079 2.505 -5.585 5.585 -5.585 L 15.657 -5.585 C 20.431 -5.585 24.315 -9.469 24.315 -14.243 C 24.315 -19.018 20.431 -22.902 15.657 -22.902 L 5.585 -22.902 C .811 -22.902 -3.074 -19.018 -3.074 -14.243 L 0 -14.243 C 0 -17.323 2.506 -19.828 5.585 -19.828 L 15.657 -19.828 C 18.737 -19.828 21.242 -17.323 21.242 -14.243 C 21.242 -11.164 18.737 -8.659 15.657 -8.659 L 5.585 -8.659 C .811 -8.659 -3.074 -4.774 -3.074 0 C -3.074 4.774 .811 8.658 5.585 8.658 L 15.657 8.658 C 20.431 8.658 24.316 4.774 24.316 0 L 21.242 0 C 21.242 3.079 18.737 5.584 15.657 5.584 L 5.585 5.584 C 2.505 5.584 0 3.079 0 0 " fill="#006533"/>
</g>
<text fill="#006533" xml:space="preserve" transform="matrix(1 0 -0 1 0 595.276)" font-size="45.091" font-family="AblationExtraBold" font-weight="bold"><tspan y="-117.1377" x="440.9985"> </tspan></text>
<clipPath id="cp3">
<path transform="matrix(1,0,0,-1,0,595.276)" d="M 0 595.276 L 841.89 595.276 L 841.89 0 L 0 0 Z "/>
</clipPath>
<g clip-path="url(#cp3)">
<path transform="matrix(1,0,0,-1,484.8809,455.2319)" d="M 0 0 C 0 3.079 -2.505 5.584 -5.584 5.584 L -21.24 5.584 L -21.24 -5.585 L -5.584 -5.585 C -2.505 -5.585 0 -3.079 0 0 M -5.584 -8.659 L -21.24 -8.659 L -21.24 -22.902 L -24.314 -22.902 L -24.314 8.658 L -5.584 8.658 C -.81 8.658 3.074 4.774 3.074 0 C 3.074 -4.774 -.81 -8.659 -5.584 -8.659 " fill="#006533"/>
</g>
<text fill="#006533" xml:space="preserve" transform="matrix(1 0 -0 1 0 595.276)" font-size="45.091" font-family="AblationExtraBold" font-weight="bold"><tspan y="-117.1377" x="491.8101"> </tspan></text>
<clipPath id="cp4">
<path transform="matrix(1,0,0,-1,0,595.276)" d="M 0 595.276 L 841.89 595.276 L 841.89 0 L 0 0 Z "/>
</clipPath>
<g clip-path="url(#cp4)">
<path transform="matrix(1,0,0,-1,532.9297,468.5893)" d="M 0 0 L -7.068 16.562 L -14.138 0 Z M -6.054 22.015 L 7.414 -9.544 L 4.073 -9.544 L 1.312 -3.074 L -15.45 -3.074 L -18.211 -9.544 L -21.552 -9.544 L -8.083 22.015 Z " fill="#006533"/>
</g>
<text fill="#006533" xml:space="preserve" transform="matrix(1 0 -0 1 0 595.276)" font-size="45.091" font-family="AblationExtraBold" font-weight="bold"><tspan y="-117.1377" x="544.1577"> </tspan></text>
<clipPath id="cp5">
<path transform="matrix(1,0,0,-1,0,595.276)" d="M 0 595.276 L 841.89 595.276 L 841.89 0 L 0 0 Z "/>
</clipPath>
<g clip-path="url(#cp5)">
<path transform="matrix(1,0,0,-1,566.7979,460.8168)" d="M 0 0 L 15.655 0 C 18.735 0 21.24 2.506 21.24 5.585 C 21.24 8.664 18.735 11.169 15.655 11.169 L 0 11.169 Z M 15.656 -3.074 L 13.954 -3.074 L 26.108 -17.316 L 22.067 -17.316 L 9.912 -3.074 L 0 -3.074 L 0 -17.317 L -3.074 -17.317 L -3.074 14.243 L 15.656 14.243 C 20.431 14.243 24.314 10.359 24.314 5.585 C 24.314 .811 20.431 -3.074 15.656 -3.074 " fill="#006533"/>
</g>
<text fill="#006533" xml:space="preserve" transform="matrix(1 0 -0 1 0 595.276)" font-size="45.091" font-family="AblationExtraBold" font-weight="bold"><tspan y="-117.1377" x="596.7271"> </tspan></text>
<clipPath id="cp6">
<path transform="matrix(1,0,0,-1,0,595.276)" d="M 0 595.276 L 841.89 595.276 L 841.89 0 L 0 0 Z "/>
</clipPath>
<g clip-path="url(#cp6)">
<path transform="matrix(1,0,0,-1,645.4775,446.5746)" d="M 0 0 L -13.469 -15.777 L 0 -31.559 L -4.044 -31.559 L -15.491 -18.148 L -26.937 -31.559 L -29.185 -31.559 L -29.185 0 L -26.11 0 L -26.11 -25.854 L -4.041 0 Z " fill="#006533"/>
<path transform="matrix(1,0,0,-1,420.9448,489.5863)" d="M 0 0 C 143.584 0 259.985 -1.871 259.985 -4.181 C 259.985 -6.491 143.584 -8.361 0 -8.361 C -143.584 -8.361 -259.985 -6.491 -259.985 -4.181 C -259.985 -1.871 -143.584 0 0 0 " fill="#006533" fill-rule="evenodd"/>
<path transform="matrix(1,0,0,-1,256.0493,510.0531)" d="M 0 0 L 16.848 0 L 16.848 -1.894 L 1.891 -1.894 L 1.891 -8.765 L 11.558 -8.765 L 11.558 -10.654 L 1.891 -10.654 L 1.891 -19.416 L 0 -19.416 Z " fill="#006533"/>
<path transform="matrix(1,0,0,-1,290.3638,519.7631)" d="M 0 0 C 0 4.31 -3.506 7.816 -7.816 7.816 C -12.127 7.816 -15.633 4.31 -15.633 0 C -15.633 -4.309 -12.127 -7.815 -7.816 -7.815 C -3.506 -7.815 0 -4.309 0 0 M -7.816 -9.706 C -13.169 -9.706 -17.524 -5.353 -17.524 0 C -17.524 5.354 -13.169 9.71 -7.816 9.71 C -2.463 9.71 1.892 5.354 1.892 0 C 1.892 -5.353 -2.463 -9.706 -7.816 -9.706 " fill="#006533"/>
<path transform="matrix(1,0,0,-1,312.9829,519.7631)" d="M 0 0 C 0 4.31 -3.506 7.816 -7.816 7.816 C -12.127 7.816 -15.633 4.31 -15.633 0 C -15.633 -4.309 -12.127 -7.815 -7.816 -7.815 C -3.506 -7.815 0 -4.309 0 0 M -7.816 -9.706 C -13.168 -9.706 -17.524 -5.353 -17.524 0 C -17.524 5.354 -13.168 9.71 -7.816 9.71 C -2.463 9.71 1.892 5.354 1.892 0 C 1.892 -5.353 -2.463 -9.706 -7.816 -9.706 " fill="#006533"/>
<path transform="matrix(1,0,0,-1,334.0083,519.7631)" d="M 0 0 C 0 4.31 -3.506 7.816 -7.816 7.816 L -13.067 7.816 L -13.067 -7.815 L -7.816 -7.815 C -3.506 -7.815 0 -4.309 0 0 M -7.816 -9.706 L -14.958 -9.706 L -14.958 9.71 L -7.816 9.71 C -2.463 9.71 1.891 5.354 1.891 0 C 1.891 -5.353 -2.463 -9.706 -7.816 -9.706 " fill="#006533"/>
<path transform="matrix(1,0,0,-1,338.98,532.352)" d="M 0 0 L -1.723 .779 L .224 5.078 L 1.946 4.299 Z " fill="#006533"/>
<path transform="matrix(1,0,0,-1,368.2549,519.7631)" d="M 0 0 C 0 4.31 -3.506 7.816 -7.816 7.816 L -13.067 7.816 L -13.067 -7.815 L -7.816 -7.815 C -3.506 -7.815 0 -4.309 0 0 M -7.816 -9.706 L -14.958 -9.706 L -14.958 9.71 L -7.816 9.71 C -2.463 9.71 1.891 5.354 1.891 0 C 1.891 -5.353 -2.463 -9.706 -7.816 -9.706 " fill="#006533"/>
<path transform="matrix(1,0,0,-1,376.2808,518.8178)" d="M 0 0 L 9.632 0 C 11.526 0 13.067 1.542 13.067 3.436 C 13.067 5.333 11.526 6.871 9.632 6.871 L 0 6.871 Z M 9.632 -1.89 L 8.585 -1.89 L 16.062 -10.651 L 13.575 -10.651 L 6.098 -1.89 L 0 -1.89 L 0 -10.651 L -1.89 -10.651 L -1.89 8.765 L 9.632 8.765 C 12.569 8.765 14.958 6.373 14.958 3.436 C 14.958 .498 12.569 -1.89 9.632 -1.89 " fill="#006533"/>
<path transform="matrix(1,0,0,-1,0,595.276)" d="M 396.981 85.223 L 398.87199 85.223 L 398.87199 65.807 L 396.981 65.807 Z " fill="#006533"/>
<path transform="matrix(1,0,0,-1,418.9683,529.4692)" d="M 0 0 L -13.575 15.903 L -13.575 0 L -15.466 0 L -15.466 19.413 L -14.083 19.413 L -.508 3.51 L -.508 19.413 L 1.382 19.413 L 1.382 0 Z " fill="#006533"/>
<path transform="matrix(1,0,0,-1,442.9648,510.0561)" d="M 0 0 L -8.283 -9.707 L 0 -19.413 L -2.486 -19.413 L -9.526 -11.163 L -16.57 -19.413 L -17.952 -19.413 L -17.952 0 L -16.062 0 L -16.062 -15.903 L -2.483 0 Z " fill="#006533"/>
<path transform="matrix(1,0,0,-1,447.2744,515.3822)" d="M 0 0 C 0 -1.894 1.541 -3.436 3.436 -3.436 L 9.632 -3.436 C 12.569 -3.436 14.957 -5.823 14.957 -8.761 C 14.957 -11.698 12.569 -14.087 9.632 -14.087 L 3.436 -14.087 C .498 -14.087 -1.891 -11.698 -1.891 -8.761 L 0 -8.761 C 0 -10.655 1.541 -12.196 3.436 -12.196 L 9.632 -12.196 C 11.525 -12.196 13.067 -10.655 13.067 -8.761 C 13.067 -6.867 11.525 -5.325 9.632 -5.325 L 3.436 -5.325 C .501 -5.325 -1.891 -2.938 -1.891 0 C -1.891 2.938 .498 5.329 3.436 5.329 L 9.632 5.329 C 12.569 5.329 14.961 2.938 14.961 0 L 13.067 0 C 13.067 1.897 11.525 3.436 9.632 3.436 L 3.436 3.436 C 1.541 3.436 0 1.897 0 0 " fill="#006533"/>
<path transform="matrix(1,0,0,-1,491.6182,520.7074)" d="M 0 0 L -9.628 0 C -11.525 0 -13.063 -1.542 -13.063 -3.436 C -13.063 -5.33 -11.525 -6.871 -9.628 -6.871 L -3.436 -6.871 C -1.538 -6.871 0 -5.33 0 -3.436 Z M 1.895 1.89 L 1.895 -8.762 L .004 -8.762 L .004 -7.505 C -.925 -8.287 -2.124 -8.762 -3.436 -8.762 L -9.628 -8.762 C -12.565 -8.762 -14.957 -6.373 -14.957 -3.436 C -14.957 -1.62 -14.043 -.018 -12.653 .944 C -14.043 1.907 -14.957 3.513 -14.957 5.325 C -14.957 8.263 -12.565 10.654 -9.628 10.654 L -3.436 10.654 C -.498 10.654 1.895 8.263 1.895 5.325 L 0 5.325 C 0 7.223 -1.538 8.761 -3.436 8.761 L -9.628 8.761 C -11.525 8.761 -13.063 7.223 -13.063 5.325 C -13.063 3.432 -11.525 1.89 -9.628 1.89 Z " fill="#006533"/>
<path transform="matrix(1,0,0,-1,525.8262,510.0561)" d="M 0 0 L 1.527 0 L 1.527 -19.413 L -.362 -19.413 L -.362 -4.95 L -7.593 -19.413 L -8.765 -19.413 L -15.994 -4.95 L -15.994 -19.413 L -17.889 -19.413 L -17.889 0 L -16.354 0 L -8.179 -16.354 Z " fill="#006533"/>
<path transform="matrix(1,0,0,-1,549.0537,519.7631)" d="M 0 0 C 0 4.31 -3.507 7.816 -7.816 7.816 C -12.126 7.816 -15.632 4.31 -15.632 0 C -15.632 -4.309 -12.126 -7.815 -7.816 -7.815 C -3.507 -7.815 0 -4.309 0 0 M -7.816 -9.706 C -13.169 -9.706 -17.526 -5.353 -17.526 0 C -17.526 5.354 -13.169 9.71 -7.816 9.71 C -2.463 9.71 1.891 5.354 1.891 0 C 1.891 -5.353 -2.463 -9.706 -7.816 -9.706 " fill="#006533"/>
<path transform="matrix(1,0,0,-1,557.0117,518.8178)" d="M 0 0 L 9.628 0 C 11.525 0 13.063 1.542 13.063 3.436 C 13.063 5.333 11.525 6.871 9.628 6.871 L 0 6.871 Z M 9.628 -1.89 L 8.581 -1.89 L 16.059 -10.651 L 13.575 -10.651 L 6.095 -1.89 L 0 -1.89 L 0 -10.651 L -1.894 -10.651 L -1.894 8.765 L 9.628 8.765 C 12.565 8.765 14.957 6.373 14.957 3.436 C 14.957 .498 12.565 -1.89 9.628 -1.89 " fill="#006533"/>
<path transform="matrix(1,0,0,-1,579.6025,511.94673)" d="M 0 0 L 0 -6.871 L 9.665 -6.871 L 9.665 -8.761 L 0 -8.761 L 0 -15.632 L 14.957 -15.632 L 14.957 -17.522 L -1.895 -17.522 L -1.895 1.894 L 14.957 1.894 L 14.957 0 Z " fill="#006533"/>
</g>
</g>
</svg>
